<svg width="350" height="350" viewBox="0 0 350 350" fill="none" xmlns="http://www.w3.org/2000/svg">
<mask id="mask0" mask-type="alpha" maskUnits="userSpaceOnUse" x="0" y="0" width="350" height="350">
<rect width="350" height="350" fill="white"/>
<ellipse rx="7.31472" ry="8.61399" transform="matrix(-1 0 0 1 55.7141 201.204)" fill="white"/>
<ellipse rx="3.25098" ry="3.82844" transform="matrix(-1 0 0 1 63.0288 217.092)" fill="white"/>
</mask>
<g mask="url(#mask0)">
<path fill-rule="evenodd" clip-rule="evenodd" d="M454.1 311.561C402.896 302.088 369.721 312.082 347.646 365.74C321.62 428.997 234.222 409.896 194.09 429.331C157.308 447.144 145.133 305.338 109.307 234.847L139.968 222.568L161.545 213.928C264.758 172.371 206.593 195.074 298.328 158.139C394.379 119.466 317.183 150.548 416.435 110.585C452.429 96.0933 454.099 60.2042 454.099 60.2042L454.099 234.847L454.099 298.488L454.1 311.561Z" fill="#58C0E7"/>
<path fill-rule="evenodd" clip-rule="evenodd" d="M-16.0125 376.696L-16.0051 389.082C24.1628 428.629 165.084 471.485 218.115 419.013C259.801 377.767 248.242 296.157 293.073 263.944C337.904 231.731 341.062 181.951 396.6 157.567C464.982 127.544 454.146 93.5098 454.1 18.0139L454.1 -12.3643C292.942 -12.4784 440.458 -12.2598 292.905 -12.3643C34.9489 -12.5469 216.031 -12.4187 64.039 -12.5263C12.0609 -12.5631 -16.249 -12.5832 -16.249 -12.5832C-16.213 47.1125 -17.4379 -11.24 -16.1164 205.65L-16.0566 304.149L-16.0125 376.696Z" fill="#4D515C"/>
<path fill-rule="evenodd" clip-rule="evenodd" d="M-16.3395 238.089L-16.33 253.424C-16.33 253.424 34.9035 256.242 56.58 213.563C78.2564 170.884 107.534 129.004 137.888 102.655C168.551 76.8887 198.822 75.4019 235.994 61.8833C273.165 48.3648 296.366 28.2956 292.685 -12.3647L271.74 -12.3795L282.212 -12.3721C169.344 -12.4521 236.58 -12.4045 147.236 -12.4677C48.3301 -12.5377 144.345 -12.4697 38.4395 -12.5447C7.75509 -12.5664 -16.4917 -12.5836 -16.4917 -12.5836C-16.4917 -12.5836 -16.4878 -6.0956 -16.4014 136.05L-16.3659 194.442L-16.3395 238.089Z" fill="#FDAF4A"/>
<path d="M39.4881 160.205L45.2079 160.205L45.2079 186.166L61.3112 186.166L61.3112 191.006L39.4881 191.006L39.4881 160.205ZM87.171 179.39C87.171 179.771 87.1417 180.314 87.083 181.018L68.6478 181.018C68.9705 182.749 69.8064 184.128 71.1557 185.154C72.5343 186.152 74.2356 186.65 76.2595 186.65C78.8407 186.65 80.9673 185.8 82.6392 184.098L85.5871 187.486C84.5311 188.748 83.1965 189.701 81.5833 190.346C79.97 190.992 78.1514 191.314 76.1275 191.314C73.5463 191.314 71.273 190.801 69.3078 189.774C67.3426 188.748 65.8173 187.325 64.732 185.506C63.6761 183.658 63.1481 181.575 63.1481 179.258C63.1481 176.97 63.6614 174.917 64.688 173.098C65.744 171.25 67.1959 169.812 69.0438 168.786C70.8917 167.759 72.9743 167.246 75.2915 167.246C77.5794 167.246 79.618 167.759 81.4073 168.786C83.2258 169.783 84.6338 171.206 85.6311 173.054C86.6577 174.873 87.171 176.985 87.171 179.39ZM75.2915 171.646C73.5316 171.646 72.0357 172.174 70.8037 173.23C69.6011 174.257 68.8678 175.635 68.6038 177.366L81.9352 177.366C81.7006 175.665 80.9819 174.286 79.7793 173.23C78.5767 172.174 77.0808 171.646 75.2915 171.646ZM100.785 167.246C104.246 167.246 106.886 168.082 108.705 169.754C110.553 171.396 111.476 173.89 111.476 177.234L111.476 191.006L106.285 191.006L106.285 188.146C105.61 189.173 104.642 189.965 103.381 190.522C102.149 191.05 100.653 191.314 98.893 191.314C97.1331 191.314 95.5932 191.021 94.2733 190.434C92.9533 189.818 91.9267 188.982 91.1934 187.926C90.4894 186.841 90.1374 185.624 90.1374 184.274C90.1374 182.162 90.9147 180.475 92.4693 179.214C94.0533 177.923 96.5318 177.278 99.905 177.278L105.977 177.278L105.977 176.926C105.977 175.283 105.478 174.022 104.481 173.142C103.513 172.262 102.061 171.822 100.125 171.822C98.8051 171.822 97.4998 172.027 96.2092 172.438C94.9479 172.848 93.8773 173.42 92.9973 174.154L90.8414 170.15C92.0734 169.211 93.5546 168.492 95.2852 167.994C97.0158 167.495 98.849 167.246 100.785 167.246ZM100.037 187.31C101.416 187.31 102.633 187.002 103.689 186.386C104.774 185.741 105.537 184.832 105.977 183.658L105.977 180.93L100.301 180.93C97.1331 180.93 95.5492 181.971 95.5492 184.054C95.5492 185.052 95.9452 185.844 96.7371 186.43C97.5291 187.017 98.6291 187.31 100.037 187.31ZM123.771 170.942C125.354 168.478 128.141 167.246 132.13 167.246L132.13 172.482C131.661 172.394 131.236 172.35 130.854 172.35C128.713 172.35 127.041 172.98 125.838 174.242C124.636 175.474 124.034 177.263 124.034 179.61L124.034 191.006L118.535 191.006L118.535 167.51L123.771 167.51L123.771 170.942ZM150.127 167.246C153.09 167.246 155.465 168.111 157.255 169.842C159.044 171.572 159.939 174.139 159.939 177.542L159.939 191.006L154.439 191.006L154.439 178.246C154.439 176.193 153.955 174.653 152.987 173.626C152.019 172.57 150.64 172.042 148.851 172.042C146.827 172.042 145.229 172.658 144.055 173.89C142.882 175.093 142.295 176.838 142.295 179.126L142.295 191.006L136.796 191.006L136.796 167.51L142.031 167.51L142.031 170.546C142.941 169.46 144.085 168.639 145.463 168.082C146.842 167.524 148.396 167.246 150.127 167.246ZM215.725 167.51L207.058 191.006L201.778 191.006L195.706 174.814L189.547 191.006L184.267 191.006L175.643 167.51L180.835 167.51L187.039 184.846L193.506 167.51L198.126 167.51L204.462 184.934L210.842 167.51L215.725 167.51ZM229.422 191.314C227.046 191.314 224.905 190.801 222.998 189.774C221.092 188.748 219.596 187.325 218.51 185.506C217.454 183.658 216.926 181.575 216.926 179.258C216.926 176.941 217.454 174.873 218.51 173.054C219.596 171.235 221.092 169.812 222.998 168.786C224.905 167.759 227.046 167.246 229.422 167.246C231.827 167.246 233.983 167.759 235.89 168.786C237.796 169.812 239.277 171.235 240.333 173.054C241.419 174.873 241.961 176.941 241.961 179.258C241.961 181.575 241.419 183.658 240.333 185.506C239.277 187.325 237.796 188.748 235.89 189.774C233.983 190.801 231.827 191.314 229.422 191.314ZM229.422 186.606C231.446 186.606 233.118 185.932 234.438 184.582C235.758 183.233 236.418 181.458 236.418 179.258C236.418 177.058 235.758 175.283 234.438 173.934C233.118 172.584 231.446 171.91 229.422 171.91C227.398 171.91 225.726 172.584 224.406 173.934C223.115 175.283 222.47 177.058 222.47 179.258C222.47 181.458 223.115 183.233 224.406 184.582C225.726 185.932 227.398 186.606 229.422 186.606ZM252.456 170.942C254.04 168.478 256.827 167.246 260.816 167.246L260.816 172.482C260.347 172.394 259.921 172.35 259.54 172.35C257.399 172.35 255.727 172.98 254.524 174.242C253.321 175.474 252.72 177.263 252.72 179.61L252.72 191.006L247.22 191.006L247.22 167.51L252.456 167.51L252.456 170.942ZM288.277 158.357L288.277 191.006L282.998 191.006L282.998 187.97C282.088 189.085 280.959 189.921 279.61 190.478C278.29 191.036 276.823 191.314 275.21 191.314C272.951 191.314 270.913 190.816 269.094 189.818C267.305 188.821 265.897 187.413 264.871 185.594C263.844 183.746 263.331 181.634 263.331 179.258C263.331 176.882 263.844 174.785 264.871 172.966C265.897 171.147 267.305 169.739 269.094 168.742C270.913 167.744 272.951 167.246 275.21 167.246C276.765 167.246 278.187 167.51 279.478 168.038C280.768 168.566 281.868 169.358 282.778 170.414L282.778 158.357L288.277 158.357ZM275.87 186.606C277.19 186.606 278.378 186.313 279.434 185.726C280.49 185.11 281.326 184.245 281.942 183.13C282.558 182.015 282.866 180.725 282.866 179.258C282.866 177.791 282.558 176.501 281.942 175.386C281.326 174.271 280.49 173.42 279.434 172.834C278.378 172.218 277.19 171.91 275.87 171.91C274.55 171.91 273.362 172.218 272.306 172.834C271.25 173.42 270.414 174.271 269.798 175.386C269.182 176.501 268.874 177.791 268.874 179.258C268.874 180.725 269.182 182.015 269.798 183.13C270.414 184.245 271.25 185.11 272.306 185.726C273.362 186.313 274.55 186.606 275.87 186.606ZM302.732 191.314C300.825 191.314 298.963 191.065 297.144 190.566C295.326 190.068 293.874 189.437 292.788 188.674L294.9 184.494C295.956 185.198 297.217 185.77 298.684 186.21C300.18 186.621 301.647 186.826 303.084 186.826C306.369 186.826 308.012 185.961 308.012 184.23C308.012 183.409 307.586 182.837 306.736 182.514C305.914 182.191 304.58 181.883 302.732 181.59C300.796 181.297 299.212 180.959 297.98 180.578C296.777 180.197 295.722 179.537 294.812 178.598C293.932 177.63 293.492 176.295 293.492 174.594C293.492 172.364 294.416 170.59 296.264 169.27C298.141 167.92 300.664 167.246 303.832 167.246C305.445 167.246 307.058 167.436 308.672 167.818C310.285 168.17 311.605 168.654 312.631 169.27L310.52 173.45C308.525 172.276 306.281 171.69 303.788 171.69C302.175 171.69 300.943 171.939 300.092 172.438C299.271 172.907 298.86 173.538 298.86 174.33C298.86 175.21 299.3 175.841 300.18 176.222C301.089 176.574 302.483 176.911 304.36 177.234C306.237 177.527 307.777 177.865 308.98 178.246C310.182 178.627 311.209 179.273 312.059 180.182C312.939 181.091 313.379 182.382 313.379 184.054C313.379 186.254 312.426 188.014 310.52 189.334C308.613 190.654 306.017 191.314 302.732 191.314Z" fill="white"/>
</g>
</svg>
