<svg width="350" height="350" viewBox="0 0 350 350" fill="none" xmlns="http://www.w3.org/2000/svg">
<rect width="350" height="350" fill="#CF4660"/>
<ellipse rx="3.25098" ry="3.82844" transform="matrix(-1 0 0 1 63.0288 217.092)" fill="#CF4660"/>
<path d="M109.842 166.38C108.221 166.38 106.713 166.152 105.32 165.696C103.952 165.215 102.761 164.543 101.748 163.682C100.735 162.821 99.9619 161.82 99.4299 160.68C99.2272 160.275 99.2145 159.907 99.3919 159.578C99.5945 159.223 99.9239 158.983 100.38 158.856C100.735 158.755 101.077 158.793 101.406 158.97C101.761 159.147 102.027 159.413 102.204 159.768C102.584 160.503 103.141 161.161 103.876 161.744C104.611 162.327 105.485 162.783 106.498 163.112C107.511 163.416 108.626 163.568 109.842 163.568C111.185 163.568 112.375 163.353 113.414 162.922C114.453 162.466 115.263 161.82 115.846 160.984C116.454 160.123 116.758 159.084 116.758 157.868C116.758 156.323 116.188 154.993 115.048 153.878C113.908 152.763 112.122 152.054 109.69 151.75C106.726 151.395 104.408 150.483 102.736 149.014C101.064 147.519 100.228 145.695 100.228 143.542C100.228 141.997 100.633 140.654 101.444 139.514C102.28 138.374 103.42 137.5 104.864 136.892C106.308 136.259 107.967 135.942 109.842 135.942C111.235 135.942 112.502 136.17 113.642 136.626C114.782 137.057 115.77 137.639 116.606 138.374C117.467 139.083 118.164 139.869 118.696 140.73C118.949 141.135 119.025 141.528 118.924 141.908C118.848 142.288 118.633 142.579 118.278 142.782C117.898 142.959 117.505 142.985 117.1 142.858C116.72 142.731 116.429 142.491 116.226 142.136C115.846 141.553 115.365 141.009 114.782 140.502C114.225 139.97 113.541 139.552 112.73 139.248C111.919 138.944 110.944 138.779 109.804 138.754C107.803 138.754 106.194 139.185 104.978 140.046C103.762 140.882 103.154 142.111 103.154 143.732C103.154 144.593 103.382 145.391 103.838 146.126C104.294 146.835 105.041 147.456 106.08 147.988C107.144 148.495 108.563 148.875 110.336 149.128C113.503 149.584 115.846 150.559 117.366 152.054C118.911 153.523 119.684 155.449 119.684 157.83C119.684 159.198 119.431 160.414 118.924 161.478C118.443 162.542 117.746 163.441 116.834 164.176C115.947 164.885 114.896 165.43 113.68 165.81C112.489 166.19 111.21 166.38 109.842 166.38ZM143.324 166C142.893 166 142.539 165.861 142.26 165.582C141.981 165.303 141.842 164.961 141.842 164.556V154.676C141.842 153.105 141.538 151.813 140.93 150.8C140.347 149.787 139.537 149.027 138.498 148.52C137.485 148.013 136.332 147.76 135.04 147.76C133.799 147.76 132.671 148.001 131.658 148.482C130.67 148.963 129.885 149.622 129.302 150.458C128.719 151.294 128.428 152.244 128.428 153.308H126.338C126.389 151.712 126.819 150.293 127.63 149.052C128.441 147.785 129.517 146.797 130.86 146.088C132.203 145.353 133.697 144.986 135.344 144.986C137.143 144.986 138.751 145.366 140.17 146.126C141.589 146.861 142.703 147.95 143.514 149.394C144.35 150.838 144.768 152.599 144.768 154.676V164.556C144.768 164.961 144.629 165.303 144.35 165.582C144.071 165.861 143.729 166 143.324 166ZM126.984 166C126.528 166 126.161 165.873 125.882 165.62C125.629 165.341 125.502 164.987 125.502 164.556V146.696C125.502 146.24 125.629 145.885 125.882 145.632C126.161 145.353 126.528 145.214 126.984 145.214C127.415 145.214 127.757 145.353 128.01 145.632C128.289 145.885 128.428 146.24 128.428 146.696V164.556C128.428 164.987 128.289 165.341 128.01 165.62C127.757 165.873 127.415 166 126.984 166ZM126.984 157.526C126.528 157.526 126.161 157.387 125.882 157.108C125.629 156.829 125.502 156.475 125.502 156.044V137.804C125.502 137.348 125.629 136.993 125.882 136.74C126.161 136.461 126.528 136.322 126.984 136.322C127.415 136.322 127.757 136.461 128.01 136.74C128.289 136.993 128.428 137.348 128.428 137.804V156.044C128.428 156.475 128.289 156.829 128.01 157.108C127.757 157.387 127.415 157.526 126.984 157.526ZM160.377 166.19C158.426 166.19 156.678 165.734 155.133 164.822C153.587 163.885 152.359 162.618 151.447 161.022C150.56 159.426 150.117 157.627 150.117 155.626C150.117 153.599 150.573 151.788 151.485 150.192C152.422 148.596 153.689 147.342 155.285 146.43C156.881 145.493 158.679 145.024 160.681 145.024C162.682 145.024 164.468 145.493 166.039 146.43C167.635 147.342 168.889 148.596 169.801 150.192C170.738 151.788 171.219 153.599 171.245 155.626L170.067 156.538C170.067 158.362 169.636 160.009 168.775 161.478C167.939 162.922 166.786 164.075 165.317 164.936C163.873 165.772 162.226 166.19 160.377 166.19ZM160.681 163.53C162.15 163.53 163.455 163.188 164.595 162.504C165.76 161.82 166.672 160.883 167.331 159.692C168.015 158.476 168.357 157.121 168.357 155.626C168.357 154.106 168.015 152.751 167.331 151.56C166.672 150.369 165.76 149.432 164.595 148.748C163.455 148.039 162.15 147.684 160.681 147.684C159.237 147.684 157.932 148.039 156.767 148.748C155.601 149.432 154.677 150.369 153.993 151.56C153.309 152.751 152.967 154.106 152.967 155.626C152.967 157.121 153.309 158.476 153.993 159.692C154.677 160.883 155.601 161.82 156.767 162.504C157.932 163.188 159.237 163.53 160.681 163.53ZM169.763 166C169.332 166 168.977 165.873 168.699 165.62C168.42 165.341 168.281 164.987 168.281 164.556V158.058L169.003 155.056L171.245 155.626V164.556C171.245 164.987 171.105 165.341 170.827 165.62C170.548 165.873 170.193 166 169.763 166ZM186.398 166.19C184.396 166.19 182.598 165.734 181.002 164.822C179.406 163.885 178.139 162.618 177.202 161.022C176.29 159.426 175.834 157.615 175.834 155.588C175.834 153.587 176.277 151.788 177.164 150.192C178.076 148.596 179.304 147.342 180.85 146.43C182.395 145.493 184.143 145.024 186.094 145.024C187.791 145.024 189.324 145.391 190.692 146.126C192.06 146.835 193.162 147.785 193.998 148.976V137.804C193.998 137.348 194.137 136.993 194.416 136.74C194.694 136.461 195.049 136.322 195.48 136.322C195.91 136.322 196.265 136.461 196.544 136.74C196.822 136.993 196.962 137.348 196.962 137.804V155.74C196.911 157.716 196.417 159.502 195.48 161.098C194.568 162.669 193.314 163.91 191.718 164.822C190.147 165.734 188.374 166.19 186.398 166.19ZM186.398 163.53C187.867 163.53 189.172 163.188 190.312 162.504C191.477 161.795 192.389 160.845 193.048 159.654C193.732 158.463 194.074 157.108 194.074 155.588C194.074 154.093 193.732 152.751 193.048 151.56C192.389 150.344 191.477 149.394 190.312 148.71C189.172 148.026 187.867 147.684 186.398 147.684C184.954 147.684 183.649 148.026 182.484 148.71C181.318 149.394 180.394 150.344 179.71 151.56C179.026 152.751 178.684 154.093 178.684 155.588C178.684 157.108 179.026 158.463 179.71 159.654C180.394 160.845 181.318 161.795 182.484 162.504C183.649 163.188 184.954 163.53 186.398 163.53ZM213.265 166.19C211.238 166.19 209.427 165.734 207.831 164.822C206.235 163.91 204.981 162.656 204.069 161.06C203.157 159.464 202.701 157.653 202.701 155.626C202.701 153.574 203.157 151.75 204.069 150.154C204.981 148.558 206.235 147.304 207.831 146.392C209.427 145.48 211.238 145.024 213.265 145.024C215.291 145.024 217.09 145.48 218.661 146.392C220.257 147.304 221.511 148.558 222.423 150.154C223.335 151.75 223.803 153.574 223.829 155.626C223.829 157.653 223.36 159.464 222.423 161.06C221.511 162.656 220.257 163.91 218.661 164.822C217.09 165.734 215.291 166.19 213.265 166.19ZM213.265 163.53C214.734 163.53 216.051 163.188 217.217 162.504C218.382 161.82 219.294 160.883 219.953 159.692C220.611 158.501 220.941 157.146 220.941 155.626C220.941 154.106 220.611 152.751 219.953 151.56C219.294 150.344 218.382 149.394 217.217 148.71C216.051 148.026 214.734 147.684 213.265 147.684C211.795 147.684 210.478 148.026 209.313 148.71C208.147 149.394 207.223 150.344 206.539 151.56C205.88 152.751 205.551 154.106 205.551 155.626C205.551 157.146 205.88 158.501 206.539 159.692C207.223 160.883 208.147 161.82 209.313 162.504C210.478 163.188 211.795 163.53 213.265 163.53ZM233.081 166C232.752 166 232.461 165.911 232.207 165.734C231.954 165.557 231.777 165.329 231.675 165.05L225.747 147.266C225.595 146.633 225.608 146.139 225.785 145.784C225.963 145.404 226.317 145.214 226.849 145.214C227.179 145.214 227.47 145.303 227.723 145.48C227.977 145.657 228.167 145.936 228.293 146.316L233.575 162.466H232.739L237.641 146.354C237.743 146.025 237.907 145.759 238.135 145.556C238.389 145.328 238.705 145.214 239.085 145.214C239.465 145.214 239.769 145.315 239.997 145.518C240.251 145.721 240.428 145.999 240.529 146.354L245.203 162.086H244.557L249.725 146.316C249.979 145.581 250.447 145.214 251.131 145.214C251.689 145.214 252.069 145.429 252.271 145.86C252.474 146.265 252.474 146.734 252.271 147.266L246.343 165.05C246.242 165.329 246.065 165.557 245.811 165.734C245.583 165.911 245.305 166 244.975 166C244.646 166 244.342 165.911 244.063 165.734C243.81 165.557 243.645 165.329 243.569 165.05L238.781 149.166H239.237L234.449 165.05C234.348 165.354 234.171 165.595 233.917 165.772C233.664 165.924 233.385 166 233.081 166ZM82.387 208.38C80.335 208.38 78.4097 207.987 76.611 207.202C74.8377 206.417 73.267 205.327 71.899 203.934C70.5564 202.515 69.505 200.894 68.745 199.07C67.985 197.221 67.605 195.245 67.605 193.142C67.605 191.065 67.9724 189.114 68.707 187.29C69.467 185.441 70.5184 183.819 71.861 182.426C73.229 181.033 74.7997 179.943 76.573 179.158C78.3717 178.347 80.3097 177.942 82.387 177.942C84.211 177.942 85.8704 178.208 87.365 178.74C88.8597 179.272 90.3037 180.121 91.697 181.286C91.925 181.463 92.0517 181.679 92.077 181.932C92.1277 182.16 92.1024 182.388 92.001 182.616C91.8997 182.819 91.7477 182.971 91.545 183.072C91.4944 183.275 91.3677 183.427 91.165 183.528C90.9624 183.629 90.7217 183.667 90.443 183.642C90.1897 183.617 89.9364 183.503 89.683 183.3C88.695 182.439 87.6184 181.805 86.453 181.4C85.2877 180.969 83.9324 180.754 82.387 180.754C80.7404 180.754 79.195 181.083 77.751 181.742C76.3324 182.401 75.0784 183.3 73.989 184.44C72.8997 185.58 72.0384 186.897 71.405 188.392C70.797 189.887 70.493 191.47 70.493 193.142C70.493 194.865 70.797 196.473 71.405 197.968C72.0384 199.463 72.8997 200.78 73.989 201.92C75.0784 203.06 76.3324 203.959 77.751 204.618C79.195 205.251 80.7404 205.568 82.387 205.568C83.7804 205.568 85.0977 205.34 86.339 204.884C87.5804 204.428 88.7584 203.769 89.873 202.908C90.177 202.655 90.4937 202.553 90.823 202.604C91.1777 202.655 91.4817 202.807 91.735 203.06C91.9884 203.313 92.115 203.643 92.115 204.048C92.115 204.251 92.0897 204.441 92.039 204.618C91.9884 204.77 91.8744 204.935 91.697 205.112C90.405 206.303 88.961 207.151 87.365 207.658C85.769 208.139 84.1097 208.38 82.387 208.38ZM92.115 204.048L89.227 203.44V195.802H83.299C82.8684 195.802 82.5137 195.675 82.235 195.422C81.9564 195.169 81.817 194.852 81.817 194.472C81.817 194.092 81.9564 193.788 82.235 193.56C82.5137 193.307 82.8684 193.18 83.299 193.18H90.633C91.0637 193.18 91.4184 193.319 91.697 193.598C91.9757 193.851 92.115 194.193 92.115 194.624V204.048ZM105.888 208.19C103.836 208.19 102.012 207.747 100.416 206.86C98.8453 205.948 97.6039 204.694 96.6919 203.098C95.8053 201.502 95.3619 199.678 95.3619 197.626C95.3619 195.549 95.7799 193.725 96.6159 192.154C97.4773 190.558 98.6553 189.304 100.15 188.392C101.645 187.48 103.367 187.024 105.318 187.024C107.243 187.024 108.915 187.467 110.334 188.354C111.778 189.215 112.893 190.419 113.678 191.964C114.463 193.509 114.856 195.27 114.856 197.246C114.856 197.651 114.729 197.981 114.476 198.234C114.223 198.462 113.893 198.576 113.488 198.576H97.3379V196.144H113.792L112.158 197.322C112.183 195.853 111.917 194.535 111.36 193.37C110.803 192.205 110.005 191.293 108.966 190.634C107.953 189.975 106.737 189.646 105.318 189.646C103.874 189.646 102.607 189.988 101.518 190.672C100.429 191.356 99.5799 192.306 98.9719 193.522C98.3893 194.713 98.0979 196.081 98.0979 197.626C98.0979 199.171 98.4273 200.539 99.0859 201.73C99.7699 202.921 100.695 203.858 101.86 204.542C103.025 205.226 104.368 205.568 105.888 205.568C106.8 205.568 107.712 205.416 108.624 205.112C109.561 204.783 110.309 204.377 110.866 203.896C111.145 203.668 111.461 203.554 111.816 203.554C112.171 203.529 112.475 203.617 112.728 203.82C113.057 204.124 113.222 204.453 113.222 204.808C113.247 205.163 113.108 205.467 112.804 205.72C111.968 206.429 110.904 207.025 109.612 207.506C108.32 207.962 107.079 208.19 105.888 208.19ZM137.628 208C137.197 208 136.842 207.861 136.564 207.582C136.285 207.303 136.146 206.961 136.146 206.556V196.676C136.146 195.105 135.842 193.813 135.234 192.8C134.651 191.787 133.84 191.027 132.802 190.52C131.788 190.013 130.636 189.76 129.344 189.76C128.102 189.76 126.975 190.001 125.962 190.482C124.974 190.963 124.188 191.622 123.606 192.458C123.023 193.294 122.732 194.244 122.732 195.308H120.642C120.692 193.712 121.123 192.293 121.934 191.052C122.744 189.785 123.821 188.797 125.164 188.088C126.506 187.353 128.001 186.986 129.648 186.986C131.446 186.986 133.055 187.366 134.474 188.126C135.892 188.861 137.007 189.95 137.818 191.394C138.654 192.838 139.072 194.599 139.072 196.676V206.556C139.072 206.961 138.932 207.303 138.654 207.582C138.375 207.861 138.033 208 137.628 208ZM121.288 208C120.832 208 120.464 207.873 120.186 207.62C119.932 207.341 119.806 206.987 119.806 206.556V188.696C119.806 188.24 119.932 187.885 120.186 187.632C120.464 187.353 120.832 187.214 121.288 187.214C121.718 187.214 122.06 187.353 122.314 187.632C122.592 187.885 122.732 188.24 122.732 188.696V206.556C122.732 206.987 122.592 207.341 122.314 207.62C122.06 207.873 121.718 208 121.288 208ZM154.947 208.19C152.895 208.19 151.071 207.747 149.475 206.86C147.904 205.948 146.663 204.694 145.751 203.098C144.864 201.502 144.421 199.678 144.421 197.626C144.421 195.549 144.839 193.725 145.675 192.154C146.536 190.558 147.714 189.304 149.209 188.392C150.703 187.48 152.426 187.024 154.377 187.024C156.302 187.024 157.974 187.467 159.393 188.354C160.837 189.215 161.951 190.419 162.737 191.964C163.522 193.509 163.915 195.27 163.915 197.246C163.915 197.651 163.788 197.981 163.535 198.234C163.281 198.462 162.952 198.576 162.547 198.576H146.397V196.144H162.851L161.217 197.322C161.242 195.853 160.976 194.535 160.419 193.37C159.861 192.205 159.063 191.293 158.025 190.634C157.011 189.975 155.795 189.646 154.377 189.646C152.933 189.646 151.666 189.988 150.577 190.672C149.487 191.356 148.639 192.306 148.031 193.522C147.448 194.713 147.157 196.081 147.157 197.626C147.157 199.171 147.486 200.539 148.145 201.73C148.829 202.921 149.753 203.858 150.919 204.542C152.084 205.226 153.427 205.568 154.947 205.568C155.859 205.568 156.771 205.416 157.683 205.112C158.62 204.783 159.367 204.377 159.925 203.896C160.203 203.668 160.52 203.554 160.875 203.554C161.229 203.529 161.533 203.617 161.787 203.82C162.116 204.124 162.281 204.453 162.281 204.808C162.306 205.163 162.167 205.467 161.863 205.72C161.027 206.429 159.963 207.025 158.671 207.506C157.379 207.962 156.137 208.19 154.947 208.19ZM170.08 195.194C170.156 193.623 170.562 192.217 171.296 190.976C172.056 189.735 173.032 188.759 174.222 188.05C175.438 187.341 176.781 186.986 178.25 186.986C179.416 186.986 180.315 187.151 180.948 187.48C181.582 187.809 181.822 188.291 181.67 188.924C181.569 189.304 181.392 189.557 181.138 189.684C180.91 189.811 180.619 189.861 180.264 189.836C179.935 189.811 179.555 189.785 179.124 189.76C177.706 189.633 176.439 189.785 175.324 190.216C174.235 190.621 173.361 191.255 172.702 192.116C172.069 192.977 171.752 194.003 171.752 195.194H170.08ZM170.308 208C169.852 208 169.498 207.873 169.244 207.62C168.991 207.367 168.864 207.012 168.864 206.556V188.658C168.864 188.202 168.991 187.847 169.244 187.594C169.498 187.341 169.852 187.214 170.308 187.214C170.764 187.214 171.119 187.341 171.372 187.594C171.626 187.847 171.752 188.202 171.752 188.658V206.556C171.752 207.012 171.626 207.367 171.372 207.62C171.119 207.873 170.764 208 170.308 208ZM193.905 208.19C191.954 208.19 190.206 207.734 188.661 206.822C187.116 205.885 185.887 204.618 184.975 203.022C184.088 201.426 183.645 199.627 183.645 197.626C183.645 195.599 184.101 193.788 185.013 192.192C185.95 190.596 187.217 189.342 188.813 188.43C190.409 187.493 192.208 187.024 194.209 187.024C196.21 187.024 197.996 187.493 199.567 188.43C201.163 189.342 202.417 190.596 203.329 192.192C204.266 193.788 204.748 195.599 204.773 197.626L203.595 198.538C203.595 200.362 203.164 202.009 202.303 203.478C201.467 204.922 200.314 206.075 198.845 206.936C197.401 207.772 195.754 208.19 193.905 208.19ZM194.209 205.53C195.678 205.53 196.983 205.188 198.123 204.504C199.288 203.82 200.2 202.883 200.859 201.692C201.543 200.476 201.885 199.121 201.885 197.626C201.885 196.106 201.543 194.751 200.859 193.56C200.2 192.369 199.288 191.432 198.123 190.748C196.983 190.039 195.678 189.684 194.209 189.684C192.765 189.684 191.46 190.039 190.295 190.748C189.13 191.432 188.205 192.369 187.521 193.56C186.837 194.751 186.495 196.106 186.495 197.626C186.495 199.121 186.837 200.476 187.521 201.692C188.205 202.883 189.13 203.82 190.295 204.504C191.46 205.188 192.765 205.53 194.209 205.53ZM203.291 208C202.86 208 202.506 207.873 202.227 207.62C201.948 207.341 201.809 206.987 201.809 206.556V200.058L202.531 197.056L204.773 197.626V206.556C204.773 206.987 204.634 207.341 204.355 207.62C204.076 207.873 203.722 208 203.291 208ZM218.596 208C217.253 208 216.05 207.683 214.986 207.05C213.947 206.417 213.124 205.555 212.516 204.466C211.908 203.351 211.604 202.085 211.604 200.666V182.084C211.604 181.653 211.731 181.299 211.984 181.02C212.263 180.741 212.617 180.602 213.048 180.602C213.479 180.602 213.833 180.741 214.112 181.02C214.391 181.299 214.53 181.653 214.53 182.084V200.666C214.53 201.958 214.91 203.022 215.67 203.858C216.43 204.669 217.405 205.074 218.596 205.074H219.622C220.027 205.074 220.357 205.213 220.61 205.492C220.863 205.771 220.99 206.125 220.99 206.556C220.99 206.987 220.838 207.341 220.534 207.62C220.23 207.873 219.85 208 219.394 208H218.596ZM209.134 190.52C208.754 190.52 208.437 190.406 208.184 190.178C207.931 189.925 207.804 189.621 207.804 189.266C207.804 188.886 207.931 188.582 208.184 188.354C208.437 188.101 208.754 187.974 209.134 187.974H218.824C219.204 187.974 219.521 188.101 219.774 188.354C220.027 188.582 220.154 188.886 220.154 189.266C220.154 189.621 220.027 189.925 219.774 190.178C219.521 190.406 219.204 190.52 218.824 190.52H209.134ZM227.843 208C227.387 208 227.02 207.873 226.741 207.62C226.488 207.341 226.361 206.974 226.361 206.518V188.696C226.361 188.24 226.488 187.885 226.741 187.632C227.02 187.353 227.387 187.214 227.843 187.214C228.274 187.214 228.616 187.353 228.869 187.632C229.148 187.885 229.287 188.24 229.287 188.696V206.518C229.287 206.974 229.148 207.341 228.869 207.62C228.616 207.873 228.274 208 227.843 208ZM227.805 183.262C227.248 183.262 226.766 183.059 226.361 182.654C225.956 182.249 225.753 181.755 225.753 181.172C225.753 180.539 225.956 180.045 226.361 179.69C226.792 179.31 227.286 179.12 227.843 179.12C228.375 179.12 228.844 179.31 229.249 179.69C229.68 180.045 229.895 180.539 229.895 181.172C229.895 181.755 229.692 182.249 229.287 182.654C228.882 183.059 228.388 183.262 227.805 183.262ZM246.199 208.19C244.173 208.19 242.361 207.734 240.765 206.822C239.169 205.91 237.915 204.656 237.003 203.06C236.091 201.464 235.635 199.653 235.635 197.626C235.635 195.574 236.091 193.75 237.003 192.154C237.915 190.558 239.169 189.304 240.765 188.392C242.361 187.48 244.173 187.024 246.199 187.024C248.226 187.024 250.025 187.48 251.595 188.392C253.191 189.304 254.445 190.558 255.357 192.154C256.269 193.75 256.738 195.574 256.763 197.626C256.763 199.653 256.295 201.464 255.357 203.06C254.445 204.656 253.191 205.91 251.595 206.822C250.025 207.734 248.226 208.19 246.199 208.19ZM246.199 205.53C247.669 205.53 248.986 205.188 250.151 204.504C251.317 203.82 252.229 202.883 252.887 201.692C253.546 200.501 253.875 199.146 253.875 197.626C253.875 196.106 253.546 194.751 252.887 193.56C252.229 192.344 251.317 191.394 250.151 190.71C248.986 190.026 247.669 189.684 246.199 189.684C244.73 189.684 243.413 190.026 242.247 190.71C241.082 191.394 240.157 192.344 239.473 193.56C238.815 194.751 238.485 196.106 238.485 197.626C238.485 199.146 238.815 200.501 239.473 201.692C240.157 202.883 241.082 203.82 242.247 204.504C243.413 205.188 244.73 205.53 246.199 205.53ZM280.276 208C279.846 208 279.491 207.861 279.212 207.582C278.934 207.303 278.794 206.961 278.794 206.556V196.676C278.794 195.105 278.49 193.813 277.882 192.8C277.3 191.787 276.489 191.027 275.45 190.52C274.437 190.013 273.284 189.76 271.992 189.76C270.751 189.76 269.624 190.001 268.61 190.482C267.622 190.963 266.837 191.622 266.254 192.458C265.672 193.294 265.38 194.244 265.38 195.308H263.29C263.341 193.712 263.772 192.293 264.582 191.052C265.393 189.785 266.47 188.797 267.812 188.088C269.155 187.353 270.65 186.986 272.296 186.986C274.095 186.986 275.704 187.366 277.122 188.126C278.541 188.861 279.656 189.95 280.466 191.394C281.302 192.838 281.72 194.599 281.72 196.676V206.556C281.72 206.961 281.581 207.303 281.302 207.582C281.024 207.861 280.682 208 280.276 208ZM263.936 208C263.48 208 263.113 207.873 262.834 207.62C262.581 207.341 262.454 206.987 262.454 206.556V188.696C262.454 188.24 262.581 187.885 262.834 187.632C263.113 187.353 263.48 187.214 263.936 187.214C264.367 187.214 264.709 187.353 264.962 187.632C265.241 187.885 265.38 188.24 265.38 188.696V206.556C265.38 206.987 265.241 207.341 264.962 207.62C264.709 207.873 264.367 208 263.936 208Z" fill="#F4F4F4"/>
</svg>
