<svg width="350" height="350" viewBox="0 0 350 350" fill="none" xmlns="http://www.w3.org/2000/svg">
<rect width="350" height="350" fill="#4B72A6"/>
<path d="M155.03 199V158.477H168.278C172.675 158.477 175.978 159.386 178.186 161.204C180.412 163.022 181.526 165.713 181.526 169.275C181.526 171.168 180.988 172.847 179.911 174.313C178.835 175.76 177.37 176.883 175.514 177.681C177.703 178.293 179.429 179.462 180.691 181.188C181.971 182.895 182.611 184.936 182.611 187.311C182.611 190.947 181.433 193.805 179.077 195.883C176.72 197.961 173.39 199 169.085 199H155.03ZM160.373 180.046V194.63H169.196C171.682 194.63 173.64 193.99 175.069 192.71C176.516 191.411 177.24 189.63 177.24 187.366C177.24 182.486 174.586 180.046 169.28 180.046H160.373ZM160.373 175.76H168.445C170.783 175.76 172.647 175.176 174.039 174.007C175.449 172.838 176.154 171.251 176.154 169.248C176.154 167.021 175.505 165.407 174.206 164.405C172.907 163.384 170.931 162.874 168.278 162.874H160.373V175.76ZM195.33 199H190.182V156.25H195.33V199ZM202.233 183.665C202.233 180.714 202.808 178.061 203.958 175.705C205.127 173.348 206.742 171.53 208.801 170.25C210.879 168.969 213.245 168.329 215.898 168.329C219.999 168.329 223.311 169.749 225.834 172.587C228.376 175.426 229.647 179.202 229.647 183.915V184.277C229.647 187.208 229.081 189.843 227.95 192.181C226.836 194.5 225.231 196.31 223.135 197.608C221.057 198.907 218.663 199.557 215.954 199.557C211.872 199.557 208.56 198.137 206.018 195.298C203.495 192.459 202.233 188.702 202.233 184.026V183.665ZM207.41 184.277C207.41 187.617 208.18 190.298 209.72 192.32C211.278 194.343 213.356 195.354 215.954 195.354C218.57 195.354 220.648 194.333 222.188 192.292C223.728 190.233 224.498 187.357 224.498 183.665C224.498 180.362 223.71 177.69 222.133 175.649C220.574 173.589 218.496 172.56 215.898 172.56C213.356 172.56 211.306 173.571 209.747 175.593C208.189 177.616 207.41 180.51 207.41 184.277ZM234.88 183.692C234.88 178.998 235.965 175.269 238.136 172.504C240.307 169.721 243.183 168.329 246.764 168.329C250.438 168.329 253.305 169.628 255.364 172.226L255.615 168.886H260.318V198.276C260.318 202.173 259.159 205.244 256.839 207.489C254.538 209.734 251.44 210.856 247.543 210.856C245.372 210.856 243.248 210.393 241.17 209.465C239.092 208.537 237.505 207.266 236.411 205.652L239.082 202.562C241.29 205.29 243.99 206.654 247.182 206.654C249.686 206.654 251.635 205.949 253.026 204.539C254.436 203.128 255.141 201.143 255.141 198.583V195.994C253.082 198.369 250.271 199.557 246.708 199.557C243.183 199.557 240.326 198.137 238.136 195.298C235.965 192.459 234.88 188.591 234.88 183.692ZM240.057 184.277C240.057 187.672 240.752 190.344 242.144 192.292C243.536 194.222 245.484 195.187 247.989 195.187C251.236 195.187 253.62 193.712 255.141 190.762V177.013C253.564 174.137 251.199 172.699 248.044 172.699C245.539 172.699 243.582 173.673 242.172 175.621C240.762 177.569 240.057 180.455 240.057 184.277Z" fill="white"/>
<ellipse cx="96.6105" cy="165.09" rx="11.6104" ry="11.634" fill="white"/>
<ellipse cx="124.475" cy="165.091" rx="11.6104" ry="11.634" fill="white"/>
<ellipse cx="124.475" cy="193.012" rx="11.6104" ry="11.634" fill="white"/>
<ellipse cx="96.6104" cy="193.012" rx="11.6104" ry="11.634" fill="white"/>
</svg>
