<svg width="350" height="350" viewBox="0 0 350 350" fill="none" xmlns="http://www.w3.org/2000/svg">
<rect width="350" height="350" fill="white"/>
<ellipse cx="105.067" cy="171.822" rx="50" ry="52.2388" fill="#B6D9E3"/>
<path d="M131.188 197.48V157.68H148.165C155.735 157.68 159.521 160.77 159.521 166.948C159.521 171.476 157.053 174.714 152.117 176.662C157.387 177.645 160.021 180.66 160.021 185.707C160.021 193.556 155.875 197.48 147.581 197.48H131.188ZM147.274 193.305C152.024 193.305 154.399 190.893 154.399 186.069C154.399 181.375 151.217 179.028 144.853 179.028H142.626V175.66C150.234 174.639 154.038 171.893 154.038 167.422C154.038 163.711 151.922 161.855 147.692 161.855H136.336V193.305H147.274ZM192.835 168.257V197.48H189.301L188.41 193.751C184.866 196.237 181.304 197.48 177.723 197.48C171.006 197.48 167.647 193.853 167.647 186.598V168.257H172.796V186.681C172.796 191.023 174.949 193.194 179.253 193.194C182.204 193.194 185.015 191.96 187.687 189.492V168.257H192.835ZM201.213 163.525H204.441L205.555 168.257H213.459V172.431H206.362V189.214C206.362 191.942 207.54 193.305 209.896 193.305H213.459V197.48H208.561C203.662 197.48 201.213 194.855 201.213 189.604V163.525ZM220.027 163.525H223.256L224.369 168.257H232.273V172.431H225.176V189.214C225.176 191.942 226.354 193.305 228.711 193.305H232.273V197.48H227.375C222.477 197.48 220.027 194.855 220.027 189.604V163.525ZM242.599 182.757C242.599 189.789 245.521 193.305 251.366 193.305C257.211 193.305 260.133 189.789 260.133 182.757C260.133 175.873 257.211 172.431 251.366 172.431C245.521 172.431 242.599 175.873 242.599 182.757ZM237.45 182.868C237.45 173.127 242.089 168.257 251.366 168.257C260.644 168.257 265.282 173.127 265.282 182.868C265.282 192.591 260.644 197.452 251.366 197.452C242.126 197.452 237.487 192.591 237.45 182.868ZM272.24 197.48V168.257H275.719L276.638 171.986C279.625 169.5 282.909 168.257 286.49 168.257C293.782 168.257 297.428 171.884 297.428 179.139V197.48H292.279V179.055C292.279 174.714 290.118 172.543 285.794 172.543C282.844 172.543 280.042 173.777 277.389 176.244V197.48H272.24Z" fill="black"/>
<ellipse cx="113.837" cy="193.631" rx="4.74643" ry="4.39359" fill="black"/>
</svg>
