<svg width="350" height="350" viewBox="0 0 350 350" fill="none" xmlns="http://www.w3.org/2000/svg">
<rect width="350" height="350" fill="#FBFBFB"/>
<ellipse rx="3.25098" ry="3.82844" transform="matrix(-1 0 0 1 63.0288 217.092)" fill="#FBFBFB"/>
<path d="M97.4947 137.718V147.09H112.367V151.93H97.4947V163.722H91.7747V132.922H114.259V137.718H97.4947ZM119.262 131.074H124.762V163.722H119.262V131.074ZM154.069 152.106C154.069 152.488 154.04 153.03 153.981 153.734H135.545C135.868 155.465 136.704 156.844 138.053 157.87C139.432 158.868 141.133 159.366 143.157 159.366C145.738 159.366 147.865 158.516 149.537 156.814L152.485 160.202C151.429 161.464 150.094 162.417 148.481 163.062C146.868 163.708 145.049 164.03 143.025 164.03C140.444 164.03 138.17 163.517 136.205 162.49C134.24 161.464 132.714 160.041 131.629 158.222C130.573 156.374 130.045 154.292 130.045 151.974C130.045 149.686 130.558 147.633 131.585 145.814C132.641 143.966 134.093 142.529 135.941 141.502C137.789 140.476 139.872 139.962 142.189 139.962C144.477 139.962 146.516 140.476 148.305 141.502C150.124 142.5 151.532 143.922 152.529 145.77C153.556 147.589 154.069 149.701 154.069 152.106ZM142.189 144.362C140.429 144.362 138.933 144.89 137.701 145.946C136.498 146.973 135.765 148.352 135.501 150.082H148.833C148.598 148.381 147.88 147.002 146.677 145.946C145.474 144.89 143.978 144.362 142.189 144.362ZM173.668 163.722L167.64 155.582L161.568 163.722H155.496L164.648 151.798L155.892 140.226H162.008L167.772 147.926L173.536 140.226H179.476L170.676 151.71L179.872 163.722H173.668ZM196.954 139.962C199.242 139.962 201.281 140.461 203.07 141.458C204.889 142.456 206.312 143.864 207.338 145.682C208.365 147.501 208.878 149.598 208.878 151.974C208.878 154.35 208.365 156.462 207.338 158.31C206.312 160.129 204.889 161.537 203.07 162.534C201.281 163.532 199.242 164.03 196.954 164.03C195.341 164.03 193.86 163.752 192.51 163.194C191.19 162.637 190.076 161.801 189.166 160.686V163.722H183.93V131.074H189.43V143.086C190.369 142.06 191.469 141.282 192.73 140.754C194.021 140.226 195.429 139.962 196.954 139.962ZM196.338 159.322C198.362 159.322 200.02 158.648 201.31 157.298C202.63 155.949 203.29 154.174 203.29 151.974C203.29 149.774 202.63 148 201.31 146.65C200.02 145.301 198.362 144.626 196.338 144.626C195.018 144.626 193.83 144.934 192.774 145.55C191.718 146.137 190.882 146.988 190.266 148.102C189.65 149.217 189.342 150.508 189.342 151.974C189.342 153.441 189.65 154.732 190.266 155.846C190.882 156.961 191.718 157.826 192.774 158.442C193.83 159.029 195.018 159.322 196.338 159.322ZM224.654 164.03C222.278 164.03 220.137 163.517 218.23 162.49C216.324 161.464 214.828 160.041 213.742 158.222C212.686 156.374 212.158 154.292 212.158 151.974C212.158 149.657 212.686 147.589 213.742 145.77C214.828 143.952 216.324 142.529 218.23 141.502C220.137 140.476 222.278 139.962 224.654 139.962C227.06 139.962 229.216 140.476 231.122 141.502C233.029 142.529 234.51 143.952 235.566 145.77C236.652 147.589 237.194 149.657 237.194 151.974C237.194 154.292 236.652 156.374 235.566 158.222C234.51 160.041 233.029 161.464 231.122 162.49C229.216 163.517 227.06 164.03 224.654 164.03ZM224.654 159.322C226.678 159.322 228.35 158.648 229.67 157.298C230.99 155.949 231.65 154.174 231.65 151.974C231.65 149.774 230.99 148 229.67 146.65C228.35 145.301 226.678 144.626 224.654 144.626C222.63 144.626 220.958 145.301 219.638 146.65C218.348 148 217.702 149.774 217.702 151.974C217.702 154.174 218.348 155.949 219.638 157.298C220.958 158.648 222.63 159.322 224.654 159.322ZM256.64 163.722L250.612 155.582L244.54 163.722H238.468L247.62 151.798L238.864 140.226H244.98L250.744 147.926L256.508 140.226H262.448L253.648 151.71L262.844 163.722H256.64ZM123.149 218.03C121.243 218.03 119.38 217.781 117.561 217.282C115.743 216.784 114.291 216.153 113.205 215.39L115.317 211.21C116.373 211.914 117.635 212.486 119.101 212.926C120.597 213.337 122.064 213.542 123.501 213.542C126.787 213.542 128.429 212.677 128.429 210.946C128.429 210.125 128.004 209.553 127.153 209.23C126.332 208.908 124.997 208.6 123.149 208.306C121.213 208.013 119.629 207.676 118.397 207.294C117.195 206.913 116.139 206.253 115.229 205.314C114.349 204.346 113.909 203.012 113.909 201.31C113.909 199.081 114.833 197.306 116.681 195.986C118.559 194.637 121.081 193.962 124.249 193.962C125.863 193.962 127.476 194.153 129.089 194.534C130.703 194.886 132.023 195.37 133.049 195.986L130.937 200.166C128.943 198.993 126.699 198.406 124.205 198.406C122.592 198.406 121.36 198.656 120.509 199.154C119.688 199.624 119.277 200.254 119.277 201.046C119.277 201.926 119.717 202.557 120.597 202.938C121.507 203.29 122.9 203.628 124.777 203.95C126.655 204.244 128.195 204.581 129.397 204.962C130.6 205.344 131.627 205.989 132.477 206.898C133.357 207.808 133.797 209.098 133.797 210.77C133.797 212.97 132.844 214.73 130.937 216.05C129.031 217.37 126.435 218.03 123.149 218.03ZM151.866 193.962C154.829 193.962 157.205 194.828 158.994 196.558C160.783 198.289 161.678 200.856 161.678 204.258V217.722H156.178V204.962C156.178 202.909 155.694 201.369 154.726 200.342C153.758 199.286 152.379 198.758 150.59 198.758C148.566 198.758 146.967 199.374 145.794 200.606C144.621 201.809 144.034 203.554 144.034 205.842V217.722H138.534V185.074H144.034V196.954C144.943 195.986 146.058 195.253 147.378 194.754C148.727 194.226 150.223 193.962 151.866 193.962ZM190.958 206.106C190.958 206.488 190.928 207.03 190.87 207.734H172.434C172.756 209.465 173.592 210.844 174.942 211.87C176.32 212.868 178.022 213.366 180.046 213.366C182.627 213.366 184.754 212.516 186.426 210.814L189.374 214.202C188.318 215.464 186.983 216.417 185.37 217.062C183.756 217.708 181.938 218.03 179.914 218.03C177.332 218.03 175.059 217.517 173.094 216.49C171.128 215.464 169.603 214.041 168.518 212.222C167.462 210.374 166.934 208.292 166.934 205.974C166.934 203.686 167.447 201.633 168.474 199.814C169.53 197.966 170.982 196.529 172.83 195.502C174.678 194.476 176.76 193.962 179.078 193.962C181.366 193.962 183.404 194.476 185.194 195.502C187.012 196.5 188.42 197.922 189.418 199.77C190.444 201.589 190.958 203.701 190.958 206.106ZM179.078 198.362C177.318 198.362 175.822 198.89 174.59 199.946C173.387 200.973 172.654 202.352 172.39 204.082H185.722C185.487 202.381 184.768 201.002 183.566 199.946C182.363 198.89 180.867 198.362 179.078 198.362ZM218.329 206.106C218.329 206.488 218.3 207.03 218.241 207.734H199.805C200.128 209.465 200.964 210.844 202.313 211.87C203.692 212.868 205.393 213.366 207.417 213.366C209.998 213.366 212.125 212.516 213.797 210.814L216.745 214.202C215.689 215.464 214.354 216.417 212.741 217.062C211.128 217.708 209.309 218.03 207.285 218.03C204.704 218.03 202.43 217.517 200.465 216.49C198.5 215.464 196.974 214.041 195.889 212.222C194.833 210.374 194.305 208.292 194.305 205.974C194.305 203.686 194.818 201.633 195.845 199.814C196.901 197.966 198.353 196.529 200.201 195.502C202.049 194.476 204.132 193.962 206.449 193.962C208.737 193.962 210.776 194.476 212.565 195.502C214.384 196.5 215.792 197.922 216.789 199.77C217.816 201.589 218.329 203.701 218.329 206.106ZM206.449 198.362C204.689 198.362 203.193 198.89 201.961 199.946C200.758 200.973 200.025 202.352 199.761 204.082H213.093C212.858 202.381 212.14 201.002 210.937 199.946C209.734 198.89 208.238 198.362 206.449 198.362ZM237.736 216.446C237.091 216.974 236.299 217.37 235.36 217.634C234.451 217.898 233.483 218.03 232.456 218.03C229.875 218.03 227.88 217.356 226.472 216.006C225.064 214.657 224.36 212.692 224.36 210.11V198.802H220.488V194.402H224.36V189.034H229.86V194.402H236.152V198.802H229.86V209.978C229.86 211.122 230.139 212.002 230.696 212.618C231.253 213.205 232.06 213.498 233.116 213.498C234.348 213.498 235.375 213.176 236.196 212.53L237.736 216.446Z" fill="#2DCCE1"/>
</svg>
